<svg width="128" height="97" viewBox="0 0 128 97" fill="none" xmlns="http://www.w3.org/2000/svg">
<path d="M42.5156 20.3906C42.4688 20.6094 42.3672 20.7812 42.2109 20.9062C42.0547 21.0312 41.8828 21.0938 41.6953 21.0938C41.4141 21.0938 41.1875 21.0078 41.0156 20.8359C40.8438 20.6484 40.7578 20.4375 40.7578 20.2031C40.7578 19.9688 40.7812 19.7422 40.8281 19.5234C40.875 19.2891 40.8984 19.0625 40.8984 18.8438C40.8984 17.7031 40.5469 16.6797 39.8438 15.7734C39.1406 14.8672 38.1406 14.1094 36.8438 13.5C35.5625 12.875 34 12.3984 32.1562 12.0703C30.3125 11.7422 28.2578 11.5781 25.9922 11.5781C24.2578 11.5781 22.5078 11.6953 20.7422 11.9297C18.9922 12.1484 17.3047 12.4766 15.6797 12.9141C14.0703 13.3359 12.5625 13.875 11.1562 14.5312C9.75 15.1719 8.52344 15.9219 7.47656 16.7812C6.44531 17.625 5.63281 18.5703 5.03906 19.6172C4.44531 20.6484 4.14844 21.7812 4.14844 23.0156C4.14844 23.9688 4.35156 24.8125 4.75781 25.5469C5.17969 26.2656 5.75 26.8984 6.46875 27.4453C7.1875 27.9766 8.03125 28.4375 9 28.8281C9.98438 29.2031 11.0469 29.5234 12.1875 29.7891C13.3281 30.0391 14.5156 30.25 15.75 30.4219C16.9844 30.5781 18.2266 30.7109 19.4766 30.8203L23.0859 31.125C24.8828 31.2812 26.4922 31.4453 27.9141 31.6172C29.3359 31.7891 30.5859 32.0078 31.6641 32.2734C33.4609 32.7266 34.7891 33.375 35.6484 34.2188C36.5078 35.0625 36.9375 36.1875 36.9375 37.5938C36.9375 38.9531 36.5625 40.1484 35.8125 41.1797C35.0625 42.2109 34.0391 43.0781 32.7422 43.7812C31.4453 44.4844 29.9297 45.0156 28.1953 45.375C26.4609 45.7344 24.6016 45.9141 22.6172 45.9141C20.4609 45.9141 18.5625 45.7656 16.9219 45.4688C15.2969 45.1875 13.9297 44.875 12.8203 44.5312C11.7266 44.1719 10.8906 43.8438 10.3125 43.5469C9.73438 43.25 9.42188 43.0859 9.375 43.0547C9.09375 42.8984 8.95312 42.6484 8.95312 42.3047C8.95312 42.0391 9.04688 41.8281 9.23438 41.6719C9.42188 41.5 9.625 41.4141 9.84375 41.4141C10.0156 41.4141 10.1719 41.4609 10.3125 41.5547C10.3281 41.5547 10.5938 41.6953 11.1094 41.9766C11.6406 42.2422 12.4219 42.5391 13.4531 42.8672C14.5 43.1953 15.7891 43.4922 17.3203 43.7578C18.8516 44.0234 20.6328 44.1562 22.6641 44.1562C24.6797 44.1562 26.4609 43.9922 28.0078 43.6641C29.5547 43.3359 30.8516 42.8828 31.8984 42.3047C32.9609 41.7109 33.7578 41.0234 34.2891 40.2422C34.8359 39.4453 35.1094 38.5859 35.1094 37.6641C35.1094 37.1172 35.0078 36.6484 34.8047 36.2578C34.6172 35.8516 34.3516 35.5078 34.0078 35.2266C33.6641 34.9297 33.25 34.6797 32.7656 34.4766C32.2969 34.2734 31.7812 34.1016 31.2188 33.9609C30.625 33.8047 29.9844 33.6719 29.2969 33.5625C28.625 33.4531 27.9297 33.3594 27.2109 33.2812C26.4922 33.2031 25.7656 33.1328 25.0312 33.0703C24.3125 33.0078 23.6016 32.9453 22.8984 32.8828L19.2891 32.5781C16.4453 32.3438 13.9609 31.9844 11.8359 31.5C9.72656 31 7.96875 30.3672 6.5625 29.6016C5.15625 28.8203 4.10156 27.8906 3.39844 26.8125C2.69531 25.7344 2.34375 24.4766 2.34375 23.0391C2.34375 21.5703 2.67188 20.2266 3.32812 19.0078C4 17.7734 4.90625 16.6641 6.04688 15.6797C7.20312 14.6953 8.54688 13.8438 10.0781 13.125C11.625 12.3906 13.2734 11.7813 15.0234 11.2969C16.7734 10.8125 18.5859 10.4531 20.4609 10.2188C22.3359 9.96875 24.1797 9.84375 25.9922 9.84375C28.2578 9.84375 30.2266 9.98438 31.8984 10.2656C33.5859 10.5312 35.0234 10.8828 36.2109 11.3203C37.4141 11.7422 38.3984 12.2266 39.1641 12.7734C39.9297 13.3203 40.5469 13.8594 41.0156 14.3906C42.125 15.6875 42.6797 17.1641 42.6797 18.8203C42.6797 19.3672 42.625 19.8906 42.5156 20.3906ZM101.766 9.75C101.734 9.98438 101.633 10.1719 101.461 10.3125C101.289 10.4531 101.094 10.5234 100.875 10.5234C100.844 10.5234 100.789 10.5234 100.711 10.5234C100.633 10.5078 100.453 10.5 100.172 10.5C99.875 10.5 99.4922 10.5312 99.0234 10.5938C98.5703 10.6563 98.0625 10.7891 97.5 10.9922C96.9531 11.1797 96.375 11.4609 95.7656 11.8359C95.1719 12.2109 94.5859 12.7188 94.0078 13.3594C93.4297 13.9844 92.8828 14.7656 92.3672 15.7031C91.8516 16.625 91.4141 17.7422 91.0547 19.0547C90.8672 19.7109 90.6484 20.6562 90.3984 21.8906C90.1641 23.1094 89.9062 24.4844 89.625 26.0156C89.3594 27.5469 89.0859 29.1797 88.8047 30.9141C88.5391 32.6484 88.2812 34.3516 88.0312 36.0234C87.7969 37.6953 87.5781 39.2891 87.375 40.8047C87.1719 42.3047 87.0156 43.5938 86.9062 44.6719C86.875 44.875 86.7812 45.0547 86.625 45.2109C86.4844 45.3828 86.3047 45.4688 86.0859 45.4688C85.8672 45.4688 85.6719 45.4141 85.5 45.3047C85.3438 45.1953 85.2344 45.0312 85.1719 44.8125C84.9688 44.0625 84.6484 43.0234 84.2109 41.6953C83.7734 40.3672 83.2656 38.875 82.6875 37.2188C82.125 35.5469 81.5078 33.7734 80.8359 31.8984C80.1641 30.0234 79.4922 28.1719 78.8203 26.3438C78.1641 24.5 77.5234 22.7422 76.8984 21.0703C76.2891 19.3828 75.75 17.8984 75.2812 16.6172C75.2031 17.4922 75.0781 18.4688 74.9062 19.5469C74.75 20.6094 74.5312 21.7578 74.25 22.9922C73.9844 24.2109 73.6484 25.5078 73.2422 26.8828C72.8359 28.2422 72.3516 29.6562 71.7891 31.125C70.9141 33.375 69.8828 35.2969 68.6953 36.8906C67.5234 38.4844 66.2891 39.8125 64.9922 40.875C63.6953 41.9375 62.375 42.7812 61.0312 43.4062C59.7031 44.0156 58.4531 44.4766 57.2812 44.7891C56.1094 45.1016 55.0547 45.2969 54.1172 45.375C53.1797 45.4688 52.4609 45.5156 51.9609 45.5156C50.2422 45.5156 48.6562 45.2891 47.2031 44.8359C45.7656 44.3828 44.5156 43.7422 43.4531 42.9141C42.4062 42.0703 41.5859 41.0703 40.9922 39.9141C40.4141 38.7422 40.125 37.4531 40.125 36.0469C40.125 34.7812 40.4062 33.6016 40.9688 32.5078C41.5469 31.3984 42.3125 30.4375 43.2656 29.625C44.2344 28.8125 45.3359 28.1719 46.5703 27.7031C47.8203 27.2344 49.1172 27 50.4609 27C51.5703 27 52.5625 27.1094 53.4375 27.3281C54.3281 27.5469 55.1094 27.8281 55.7812 28.1719C56.4688 28.5 57.0547 28.8594 57.5391 29.25C58.0391 29.6406 58.4453 30.0156 58.7578 30.375C59.0859 30.7188 59.3281 31.0156 59.4844 31.2656C59.6562 31.5156 59.7578 31.6641 59.7891 31.7109C59.8516 31.8359 59.8828 31.9766 59.8828 32.1328C59.8828 32.3516 59.7969 32.5547 59.625 32.7422C59.4688 32.9297 59.2578 33.0234 58.9922 33.0234C58.6484 33.0234 58.3906 32.8672 58.2188 32.5547C58.2031 32.5078 58.0469 32.2891 57.75 31.8984C57.4688 31.4922 57.0234 31.0547 56.4141 30.5859C55.8203 30.1172 55.0469 29.6953 54.0938 29.3203C53.1406 28.9297 51.9844 28.7344 50.625 28.7344C49.5156 28.7344 48.4297 28.9219 47.3672 29.2969C46.3203 29.6719 45.3906 30.1875 44.5781 30.8438C43.7656 31.5 43.1094 32.2812 42.6094 33.1875C42.125 34.0781 41.8828 35.0469 41.8828 36.0938C41.8828 37.2344 42.1484 38.2812 42.6797 39.2344C43.2109 40.1719 43.9297 40.9766 44.8359 41.6484C45.7578 42.3203 46.8203 42.8438 48.0234 43.2188C49.2422 43.5781 50.5391 43.7578 51.9141 43.7578C52.4453 43.7578 53.1484 43.7188 54.0234 43.6406C54.8984 43.5625 55.875 43.3828 56.9531 43.1016C58.0469 42.8203 59.1953 42.3984 60.3984 41.8359C61.6016 41.2578 62.7891 40.4766 63.9609 39.4922C65.1328 38.5078 66.25 37.2812 67.3125 35.8125C68.3906 34.3438 69.3359 32.5625 70.1484 30.4688C70.9922 28.3125 71.6484 26.2656 72.1172 24.3281C72.6016 22.375 72.9609 20.6172 73.1953 19.0547C73.4297 17.4922 73.5703 16.1641 73.6172 15.0703C73.6797 13.9609 73.7109 13.1719 73.7109 12.7031V12.2344C73.7109 11.9844 73.7891 11.7734 73.9453 11.6016C74.1172 11.4141 74.3359 11.3203 74.6016 11.3203C74.9922 11.3203 75.2656 11.5156 75.4219 11.9062C75.4688 12.0156 75.6016 12.3828 75.8203 13.0078C76.0547 13.6328 76.3516 14.4453 76.7109 15.4453C77.0859 16.4297 77.5078 17.5703 77.9766 18.8672C78.4609 20.1641 78.9688 21.5469 79.5 23.0156C80.0312 24.4688 80.5781 25.9766 81.1406 27.5391C81.7031 29.1016 82.25 30.6406 82.7812 32.1562C83.3281 33.6719 83.8438 35.1328 84.3281 36.5391C84.8125 37.9453 85.25 39.2266 85.6406 40.3828C85.8125 39.1328 86 37.8125 86.2031 36.4219C86.4062 35.0156 86.6172 33.6016 86.8359 32.1797C87.0703 30.7422 87.2969 29.3359 87.5156 27.9609C87.75 26.5859 87.9766 25.2969 88.1953 24.0938C88.4297 22.8906 88.6406 21.8125 88.8281 20.8594C89.0156 19.9062 89.1875 19.1406 89.3438 18.5625C89.6875 17.1875 90.1797 15.9063 90.8203 14.7188C91.4609 13.5156 92.2344 12.4688 93.1406 11.5781C94.0625 10.6875 95.1094 9.99219 96.2812 9.49219C97.4688 8.97656 98.7812 8.71875 100.219 8.71875C100.766 8.71875 101.156 8.78125 101.391 8.90625C101.641 9.03125 101.766 9.27344 101.766 9.63281V9.75Z" fill="black"/>
<path d="M38.3438 73.0391C38.3281 73.1016 38.2188 73.3672 38.0156 73.8359C37.8125 74.3047 37.4688 74.8828 36.9844 75.5703C36.5156 76.2578 35.8906 77.0156 35.1094 77.8438C34.3281 78.6719 33.3438 79.4844 32.1562 80.2812C30.9688 81.0625 29.5625 81.7812 27.9375 82.4375C26.3125 83.0781 24.4297 83.5703 22.2891 83.9141C20.8516 84.1484 19.3438 84.2656 17.7656 84.2656C16.4531 84.2656 15.1328 84.1719 13.8047 83.9844C12.4922 83.8125 11.2266 83.5312 10.0078 83.1406C8.80469 82.7656 7.67969 82.2812 6.63281 81.6875C5.58594 81.0938 4.67188 80.3906 3.89062 79.5781C3.125 78.7656 2.51562 77.8359 2.0625 76.7891C1.625 75.7266 1.40625 74.5469 1.40625 73.25C1.40625 70.9531 2.03906 68.9766 3.30469 67.3203C4.58594 65.6641 6.47656 64.375 8.97656 63.4531C8.08594 62.625 7.42188 61.7109 6.98438 60.7109C6.54688 59.7109 6.32812 58.6719 6.32812 57.5938C6.32812 56.25 6.63281 55.0078 7.24219 53.8672C7.86719 52.7266 8.72656 51.7422 9.82031 50.9141C10.9141 50.0859 12.2109 49.4453 13.7109 48.9922C15.2266 48.5234 16.8828 48.2891 18.6797 48.2891C20.4922 48.2891 22.0703 48.4609 23.4141 48.8047C24.7734 49.1484 25.9297 49.5781 26.8828 50.0938C27.8516 50.6094 28.6406 51.1719 29.25 51.7812C29.875 52.3906 30.3672 52.9609 30.7266 53.4922C31.0859 54.0234 31.3359 54.4766 31.4766 54.8516C31.6172 55.2109 31.6953 55.4141 31.7109 55.4609C31.7266 55.5234 31.7344 55.6094 31.7344 55.7188C31.7344 55.9375 31.6484 56.1406 31.4766 56.3281C31.3203 56.5 31.1094 56.5859 30.8438 56.5859C30.6562 56.5859 30.4844 56.5312 30.3281 56.4219C30.1875 56.2969 30.0859 56.1328 30.0234 55.9297C30.0234 55.8984 29.9609 55.7344 29.8359 55.4375C29.7109 55.125 29.4922 54.75 29.1797 54.3125C28.8672 53.875 28.4375 53.4141 27.8906 52.9297C27.3594 52.4297 26.6719 51.9688 25.8281 51.5469C24.9844 51.1094 23.9766 50.75 22.8047 50.4688C21.6328 50.1875 20.2578 50.0469 18.6797 50.0469C16.8672 50.0469 15.2891 50.2734 13.9453 50.7266C12.6172 51.1797 11.5156 51.7734 10.6406 52.5078C9.78125 53.2266 9.14062 54.0312 8.71875 54.9219C8.29688 55.8125 8.08594 56.6875 8.08594 57.5469C8.08594 58.5625 8.33594 59.5312 8.83594 60.4531C9.33594 61.375 10.0547 62.1641 10.9922 62.8203C11.8359 62.6016 12.6641 62.4297 13.4766 62.3047C14.2891 62.1797 15.0547 62.0859 15.7734 62.0234C16.4922 61.9453 17.1406 61.8984 17.7188 61.8828C18.3125 61.8516 18.7969 61.8359 19.1719 61.8359C19.8594 61.8359 20.4922 61.8906 21.0703 62C21.6484 62.0938 22.1406 62.2422 22.5469 62.4453C22.9688 62.6328 23.2969 62.8828 23.5312 63.1953C23.7656 63.4922 23.8828 63.8359 23.8828 64.2266C23.8828 64.6172 23.7656 64.9688 23.5312 65.2812C23.2969 65.5938 22.9688 65.8594 22.5469 66.0781C22.1406 66.2969 21.6484 66.4688 21.0703 66.5938C20.4922 66.7031 19.8594 66.7578 19.1719 66.7578C18.4219 66.7578 17.6641 66.7109 16.8984 66.6172C16.1328 66.5234 15.3828 66.3906 14.6484 66.2188C13.9297 66.0469 13.2344 65.8359 12.5625 65.5859C11.8906 65.3203 11.2812 65.0234 10.7344 64.6953C8.25 65.4453 6.36719 66.5312 5.08594 67.9531C3.80469 69.3594 3.16406 71.1016 3.16406 73.1797C3.16406 74.3047 3.35938 75.3203 3.75 76.2266C4.15625 77.1172 4.71094 77.9062 5.41406 78.5938C6.11719 79.2812 6.9375 79.875 7.875 80.375C8.82812 80.8594 9.84375 81.2578 10.9219 81.5703C12 81.8828 13.125 82.1172 14.2969 82.2734C15.4688 82.4141 16.6328 82.4844 17.7891 82.4844C18.5391 82.4844 19.2656 82.4609 19.9688 82.4141C20.6719 82.3516 21.3516 82.2656 22.0078 82.1562C23.9766 81.8438 25.7031 81.3906 27.1875 80.7969C28.6875 80.1875 29.9766 79.5312 31.0547 78.8281C32.1484 78.1094 33.0547 77.3828 33.7734 76.6484C34.4922 75.8984 35.0625 75.2188 35.4844 74.6094C35.9219 73.9844 36.2266 73.4766 36.3984 73.0859C36.5859 72.6953 36.6797 72.4922 36.6797 72.4766C36.7422 72.2891 36.8438 72.1484 36.9844 72.0547C37.1406 71.9453 37.3125 71.8906 37.5 71.8906C37.75 71.8906 37.9609 71.9766 38.1328 72.1484C38.3047 72.3203 38.3906 72.5234 38.3906 72.7578C38.3906 72.8203 38.375 72.9141 38.3438 73.0391ZM22.1016 64.25C22.1016 64.125 22 64.0156 21.7969 63.9219C21.5938 63.8281 21.3281 63.7578 21 63.7109C20.6875 63.6484 20.3281 63.6094 19.9219 63.5938C19.5156 63.5625 19.1016 63.5469 18.6797 63.5469C17.7578 63.5469 16.8828 63.5781 16.0547 63.6406C15.2266 63.6875 14.2812 63.8125 13.2188 64.0156C14.0312 64.3125 14.9609 64.5547 16.0078 64.7422C17.0703 64.9141 18.1406 65 19.2188 65C20.2031 65 20.9297 64.9219 21.3984 64.7656C21.8672 64.6094 22.1016 64.4375 22.1016 64.25ZM64.3359 53.1406C64.1016 53.4688 63.875 53.8516 63.6562 54.2891C63.4531 54.7109 63.2656 55.2031 63.0938 55.7656C62.9219 56.3281 62.7812 56.9766 62.6719 57.7109C62.5625 58.4297 62.4922 59.2422 62.4609 60.1484C62.4297 60.9922 62.3984 61.8359 62.3672 62.6797C62.3516 63.5234 62.3203 64.3672 62.2734 65.2109C62.3516 65.1953 62.4766 65.1875 62.6484 65.1875C63.4453 65.1875 64.3438 65.3125 65.3438 65.5625C66.3438 65.7969 67.375 66.1562 68.4375 66.6406C69.875 66.2656 71.1406 65.7734 72.2344 65.1641C73.3438 64.5547 74.3203 63.875 75.1641 63.125C76.0234 62.3594 76.7812 61.5469 77.4375 60.6875C78.1094 59.8125 78.7266 58.9375 79.2891 58.0625C79.8516 57.1875 80.3828 56.3281 80.8828 55.4844C81.3828 54.625 81.9062 53.8359 82.4531 53.1172C83.0156 52.3672 83.6562 51.6562 84.375 50.9844C85.1094 50.3125 85.8594 49.7344 86.625 49.25C87.4062 48.75 88.1875 48.3594 88.9688 48.0781C89.75 47.7812 90.4844 47.6328 91.1719 47.6328C91.4062 47.6328 91.6172 47.7109 91.8047 47.8672C92.0078 48.0078 92.1094 48.2109 92.1094 48.4766C92.1094 48.7266 92.0234 48.9375 91.8516 49.1094C91.6953 49.2812 91.4922 49.375 91.2422 49.3906C90.7734 49.4062 90.2188 49.5312 89.5781 49.7656C88.9531 50 88.3047 50.3281 87.6328 50.75C86.9609 51.1719 86.2969 51.6719 85.6406 52.25C84.9844 52.8281 84.3906 53.4766 83.8594 54.1953C83.25 55.0234 82.6797 55.8672 82.1484 56.7266C81.6328 57.5859 81.1016 58.4375 80.5547 59.2812C80.0234 60.1094 79.4531 60.9297 78.8438 61.7422C78.2344 62.5391 77.5391 63.3047 76.7578 64.0391C75.9766 64.7578 75.0781 65.4375 74.0625 66.0781C73.0625 66.7188 71.8984 67.2969 70.5703 67.8125C71.6797 68.5156 72.75 69.3984 73.7812 70.4609C74.8125 71.5078 75.9297 72.6797 77.1328 73.9766C78.1328 75.0547 79.0703 76.0703 79.9453 77.0234C80.8359 77.9766 81.6953 78.8125 82.5234 79.5312C83.3672 80.2344 84.1797 80.7891 84.9609 81.1953C85.7578 81.6016 86.5625 81.8047 87.375 81.8047C88.375 81.8047 89.3359 81.5469 90.2578 81.0312C91.1797 80.5 91.9609 79.7344 92.6016 78.7344C92.7734 78.4688 93.0234 78.3359 93.3516 78.3359C93.6172 78.3359 93.8281 78.4297 93.9844 78.6172C94.1562 78.8047 94.2422 79.0078 94.2422 79.2266C94.2422 79.3984 94.1953 79.5547 94.1016 79.6953C93.3047 80.9609 92.3125 81.9297 91.125 82.6016C89.9375 83.2578 88.6953 83.5859 87.3984 83.5859C86.3984 83.5859 85.4375 83.375 84.5156 82.9531C83.5938 82.5156 82.6719 81.9219 81.75 81.1719C80.8281 80.4062 79.8828 79.5156 78.9141 78.5C77.9453 77.4688 76.9141 76.3594 75.8203 75.1719C75.1016 74.4062 74.4219 73.6875 73.7812 73.0156C73.1562 72.3438 72.5391 71.7344 71.9297 71.1875C71.3359 70.625 70.7344 70.125 70.125 69.6875C69.5156 69.2344 68.8828 68.8438 68.2266 68.5156C67.3828 68.7188 66.5703 68.8594 65.7891 68.9375C65.0078 69.0156 64.2891 69.0547 63.6328 69.0547C63.3203 69.0547 63.0312 69.0469 62.7656 69.0312C62.5 69.0156 62.2578 68.9844 62.0391 68.9375C61.9141 70.3125 61.7266 71.6406 61.4766 72.9219C61.2422 74.1875 60.9219 75.3828 60.5156 76.5078C60.1094 77.6172 59.5938 78.6328 58.9688 79.5547C58.3594 80.4766 57.6094 81.2656 56.7188 81.9219C55.8438 82.5781 54.8047 83.0859 53.6016 83.4453C52.4141 83.8203 51.0391 84.0078 49.4766 84.0078C48.5859 84.0078 47.7031 83.9297 46.8281 83.7734C45.9688 83.6328 45.1328 83.4141 44.3203 83.1172C43.5234 82.8359 42.7578 82.4922 42.0234 82.0859C41.3047 81.6641 40.6562 81.1875 40.0781 80.6562C39.8906 80.5 39.7969 80.2812 39.7969 80C39.7969 79.7656 39.8828 79.5625 40.0547 79.3906C40.2266 79.2031 40.4297 79.1094 40.6641 79.1094C40.9141 79.1094 41.1172 79.1875 41.2734 79.3438C42.2891 80.2656 43.5156 80.9844 44.9531 81.5C46.3906 82 47.8984 82.25 49.4766 82.25C51.4609 82.25 53.1094 81.9141 54.4219 81.2422C55.75 80.5703 56.8203 79.625 57.6328 78.4062C58.4453 77.1719 59.0547 75.7031 59.4609 74C59.8672 72.2812 60.1562 70.375 60.3281 68.2812C60.1406 68.1094 60 67.9297 59.9062 67.7422C59.8281 67.5391 59.7891 67.3281 59.7891 67.1094C59.7891 66.5781 60.0312 66.1406 60.5156 65.7969C60.5625 64.875 60.5938 63.9375 60.6094 62.9844C60.6406 62.0156 60.6719 61.0234 60.7031 60.0078C60.7344 58.3984 60.9062 57.0469 61.2188 55.9531C61.5312 54.8594 61.875 53.9375 62.25 53.1875C61.4688 53.2188 60.6484 53.1953 59.7891 53.1172C58.9297 53.0234 58.0547 52.9219 57.1641 52.8125C56.2734 52.7031 55.3828 52.6016 54.4922 52.5078C53.6016 52.3984 52.7344 52.3438 51.8906 52.3438C50.8125 52.3438 49.7969 52.5 48.8438 52.8125C47.8906 53.125 47.0547 53.5703 46.3359 54.1484C45.6328 54.7109 45.0781 55.3906 44.6719 56.1875C44.2656 56.9844 44.0625 57.8594 44.0625 58.8125C44.0625 59.6406 44.2344 60.3203 44.5781 60.8516C44.9375 61.3828 45.3359 61.8125 45.7734 62.1406C46.2109 62.4531 46.6094 62.6719 46.9688 62.7969C47.3438 62.9219 47.5547 62.9922 47.6016 63.0078C47.8047 63.0547 47.9688 63.1641 48.0938 63.3359C48.2188 63.4922 48.2812 63.6719 48.2812 63.875C48.2812 64.1406 48.1875 64.3516 48 64.5078C47.8125 64.6641 47.6094 64.7422 47.3906 64.7422C47.2969 64.7422 47.2266 64.7344 47.1797 64.7188C46.7422 64.625 46.2422 64.4375 45.6797 64.1562C45.1172 63.875 44.5859 63.5 44.0859 63.0312C43.5859 62.5469 43.1641 61.9609 42.8203 61.2734C42.4766 60.5703 42.3047 59.75 42.3047 58.8125C42.3047 57.5938 42.5547 56.4844 43.0547 55.4844C43.5547 54.4688 44.2344 53.6016 45.0938 52.8828C45.9688 52.1484 46.9844 51.5859 48.1406 51.1953C49.3125 50.7891 50.5547 50.5859 51.8672 50.5859C52.8828 50.5859 53.9141 50.6406 54.9609 50.75C56.0078 50.8594 57.0312 50.9766 58.0312 51.1016C59.0312 51.2109 59.9844 51.3125 60.8906 51.4062C61.8125 51.4844 62.6562 51.4922 63.4219 51.4297C63.7188 51.0547 64.0781 50.6875 64.5 50.3281C64.9219 49.9688 65.3672 49.6562 65.8359 49.3906C66.3203 49.1094 66.8047 48.8828 67.2891 48.7109C67.7891 48.5391 68.2734 48.4531 68.7422 48.4531C69.2422 48.4531 69.6719 48.6094 70.0312 48.9219C70.3906 49.2188 70.5703 49.6016 70.5703 50.0703C70.5703 50.4453 70.3984 50.8047 70.0547 51.1484C69.7266 51.4922 69.2734 51.8047 68.6953 52.0859C68.1328 52.3672 67.4688 52.6016 66.7031 52.7891C65.9531 52.9766 65.1641 53.0938 64.3359 53.1406ZM65.7891 67.2969C65.6484 67.25 65.4609 67.2031 65.2266 67.1562C64.9922 67.0938 64.7344 67.0391 64.4531 66.9922C64.1719 66.9453 63.875 66.9062 63.5625 66.875C63.25 66.8438 62.9453 66.8281 62.6484 66.8281C62.5703 66.8281 62.4922 66.8359 62.4141 66.8516C62.3516 66.8516 62.2812 66.8594 62.2031 66.875C62.1875 66.9531 62.1797 67.0391 62.1797 67.1328C62.1797 67.2109 62.1719 67.2891 62.1562 67.3672C62.3906 67.4297 62.8125 67.4609 63.4219 67.4609C63.5156 67.4609 63.6641 67.4609 63.8672 67.4609C64.0703 67.4609 64.2891 67.4531 64.5234 67.4375C64.7734 67.4219 65.0078 67.4062 65.2266 67.3906C65.4609 67.375 65.6484 67.3438 65.7891 67.2969ZM68.8125 49.8828C68.6562 49.8828 68.4453 49.9219 68.1797 50C67.9297 50.0781 67.6562 50.1875 67.3594 50.3281C67.0781 50.4688 66.7891 50.625 66.4922 50.7969C66.1953 50.9688 65.9297 51.1484 65.6953 51.3359C66.1016 51.3047 66.5156 51.2109 66.9375 51.0547C67.375 50.8984 67.7578 50.7344 68.0859 50.5625C68.4141 50.3906 68.6484 50.2344 68.7891 50.0938C68.9453 49.9531 68.9531 49.8828 68.8125 49.8828Z" fill="black"/>
</svg>
